<?xml version="1.0" standalone="no"?>
<!DOCTYPE svg PUBLIC "-//W3C//DTD SVG 20010904//EN"
 "http://www.w3.org/TR/2001/REC-SVG-20010904/DTD/svg10.dtd">
<svg version="1.0" xmlns="http://www.w3.org/2000/svg"
 width="618.000000pt" height="618.000000pt" viewBox="0 0 618.000000 618.000000"
 preserveAspectRatio="xMidYMid meet">
<metadata>
Created by potrace 1.14, written by Peter Selinger 2001-2017
</metadata>
<g transform="translate(0.000000,618.000000) scale(0.100000,-0.100000)"
fill="#000000" stroke="none">
<path d="M0 3090 l0 -3090 3090 0 3090 0 0 3090 0 3090 -3090 0 -3090 0 0
-3090z m4898 1950 c134 -58 201 -210 157 -358 -14 -45 -35 -73 -157 -200 -208
-218 -285 -328 -334 -479 -31 -95 -34 -149 -24 -488 3 -117 1 -136 -20 -190
-21 -55 -65 -129 -105 -180 -15 -19 -42 7 -650 615 -348 348 -631 638 -628
643 15 25 158 106 214 122 56 15 86 17 239 10 238 -10 297 -7 381 16 165 46
283 124 494 330 77 75 151 142 165 149 84 45 179 48 268 10z m-1244 -1409
l689 -689 -12 -33 c-6 -18 -29 -55 -51 -83 -70 -91 -1642 -1652 -1691 -1680
-68 -39 -175 -59 -250 -47 -135 22 -131 19 -662 549 -448 447 -491 493 -523
557 -56 113 -56 225 -2 342 15 32 69 96 167 196 l145 147 296 -295 c325 -325
323 -323 381 -266 20 21 29 39 29 62 0 30 -28 61 -292 326 l-293 293 153 153
152 152 277 -276 c153 -152 289 -284 303 -293 36 -24 68 -20 101 13 20 21 29
39 29 62 0 30 -28 61 -292 326 l-293 293 133 132 132 133 293 -293 c260 -259
296 -292 324 -292 48 0 87 38 87 84 0 35 -15 52 -292 329 l-292 292 222 222
c204 203 288 273 328 273 8 0 325 -310 704 -689z"/>
</g>
</svg>
